<?xml version="1.0" encoding="UTF-8" standalone="no"?>
<svg
   width="956"
   height="387"
   viewBox="0 0 956 387"
   fill="none"
   version="1.1"
   id="svg13"
   xmlns="http://www.w3.org/2000/svg"
   xmlns:svg="http://www.w3.org/2000/svg">
  <g
     clip-path="url(#clip0)"
     fill="#E10054"
     id="g6">
    <path
       style="color:#000000;fill:#e10054;-inkscape-stroke:none"
       d="m 153.514,379.867 h 17.91 v 5.118 h -23.576 v -40.392 h 5.666 z m 28.144,5.118 h -6.214 l 17.545,-40.392 h 5.117 l 17.179,40.392 h -6.214 l -4.203,-9.87 h -19.189 z m 6.031,-14.987 h 15.168 l -7.492,-18.826 z m 58.116,-25.405 h 13.889 l 4.569,0.548 c 1.411,0.357 2.764,0.911 4.021,1.645 a 11.895,11.895 0 0 1 2.924,3.107 10.422,10.422 0 0 1 1.096,4.935 8.955,8.955 0 0 1 -2.01,5.666 9.69,9.69 0 0 1 -5.117,3.107 8.398,8.398 0 0 1 3.655,0.914 10.601,10.601 0 0 1 2.741,2.01 7.143,7.143 0 0 1 1.828,2.924 8.973,8.973 0 0 1 0.731,3.839 11.162,11.162 0 0 1 -1.097,5.117 12.06,12.06 0 0 1 -3.289,3.473 17.56,17.56 0 0 1 -4.935,2.193 28.371,28.371 0 0 1 -5.848,0.731 h -13.158 z m 5.482,16.997 h 7.493 c 0.989,0.06 1.98,-0.064 2.924,-0.365 a 5.486,5.486 0 0 0 2.559,-1.097 6.565,6.565 0 0 0 1.827,-2.01 6.042,6.042 0 0 0 0.549,-2.742 4.748,4.748 0 0 0 -2.376,-4.569 13.152,13.152 0 0 0 -6.397,-1.462 h -6.579 z m 0,18.643 h 7.128 l 3.655,-0.366 a 8.965,8.965 0 0 0 3.107,-1.096 5.484,5.484 0 0 0 2.375,-2.193 6.762,6.762 0 0 0 -1.462,-8.591 12.976,12.976 0 0 0 -7.127,-1.462 h -7.676 z m 39.841,-0.366 h 21.017 v 5.118 h -26.683 v -40.392 h 25.769 v 4.935 h -20.103 v 12.062 h 19.006 v 4.935 h -19.006 z m 33.261,5.118 h -6.214 l 17.545,-40.392 h 5.117 l 17.179,40.392 h -6.214 l -4.203,-9.87 H 328.41 Z m 6.031,-14.987 h 15.169 l -7.493,-18.826 z m 50.623,15.901 a 16.27,16.27 0 0 1 -6.945,-1.28 14.078,14.078 0 0 1 -4.934,-3.472 20.467,20.467 0 0 1 -2.924,-5.118 23.023,23.023 0 0 1 -0.914,-6.031 v -25.405 h 5.665 v 25.039 c 0.003,1.419 0.187,2.832 0.549,4.204 a 10.25,10.25 0 0 0 1.644,3.473 7.13,7.13 0 0 0 3.107,2.558 10.786,10.786 0 0 0 9.504,0 7.127,7.127 0 0 0 3.106,-2.558 10.233,10.233 0 0 0 1.645,-3.473 c 0.361,-1.372 0.546,-2.785 0.548,-4.204 v -25.039 h 5.666 v 25.405 a 23.023,23.023 0 0 1 -0.914,6.031 20.498,20.498 0 0 1 -2.924,5.118 14.078,14.078 0 0 1 -4.934,3.472 16.27,16.27 0 0 1 -6.945,1.28 z m 42.399,-0.914 h -5.665 v -35.457 h -12.793 v -4.935 h 31.434 v 4.935 h -12.976 z m 27.048,-5.118 h 21.199 v 5.118 h -26.865 v -40.392 h 25.951 v 4.935 H 450.49 v 12.062 h 19.006 v 4.935 H 450.49 Z m 8.772,-38.381 h -4.386 l 5.665,-8.225 h 6.579 z m 46.054,3.107 h 12.245 c 2.035,-0.05 4.066,0.196 6.031,0.731 a 11.687,11.687 0 0 1 4.568,2.01 8.947,8.947 0 0 1 2.924,3.473 c 0.616,1.635 0.926,3.37 0.914,5.117 a 11.152,11.152 0 0 1 -1.096,5.118 9.513,9.513 0 0 1 -3.107,3.473 11.706,11.706 0 0 1 -4.569,2.01 20.443,20.443 0 0 1 -5.848,0.731 h -6.397 v 17.729 h -5.665 z m 5.665,17.911 h 6.031 l 3.656,-0.365 3.106,-1.28 a 4.024,4.024 0 0 0 1.828,-2.01 4.936,4.936 0 0 0 0.731,-2.925 5.304,5.304 0 0 0 -0.731,-3.107 4.93,4.93 0 0 0 -1.828,-2.01 7.856,7.856 0 0 0 -3.106,-1.097 l -3.656,-0.365 h -6.031 z m 29.607,22.481 h -6.214 l 17.362,-40.392 h 5.117 l 17.361,40.392 h -6.396 l -4.021,-9.87 h -19.189 z m 6.03,-14.987 h 15.169 l -7.676,-18.826 z m 41.486,14.987 h -5.483 v -40.392 h 12.793 c 1.902,-0.008 3.8,0.176 5.665,0.548 1.6,0.481 3.134,1.156 4.569,2.011 a 11.497,11.497 0 0 1 3.107,3.472 11.152,11.152 0 0 1 1.096,5.118 10.058,10.058 0 0 1 -2.741,7.31 14.618,14.618 0 0 1 -7.127,3.473 l 11.33,18.46 h -6.761 l -10.417,-17.912 h -6.031 z m 0,-22.664 h 6.579 l 3.655,-0.365 a 8.947,8.947 0 0 0 3.107,-1.097 10.4,10.4 0 0 0 2.01,-2.01 7.86,7.86 0 0 0 0.731,-3.107 6.95,6.95 0 0 0 -0.731,-2.925 6.949,6.949 0 0 0 -2.01,-2.01 8.047,8.047 0 0 0 -2.924,-1.097 l -3.473,-0.365 h -6.944 z m 46.054,22.664 h -5.666 v -35.457 h -12.975 v -4.935 h 31.434 v 4.935 h -12.793 z m 19.554,0 h -6.213 l 17.544,-40.392 h 5.117 l 17.179,40.392 h -6.396 l -4.021,-9.87 h -19.189 z m 6.031,-14.987 h 15.169 l -7.493,-18.826 z M 725.17,353 a 12.988,12.988 0 0 0 -4.752,-3.29 16.99,16.99 0 0 0 -6.214,-1.096 14.252,14.252 0 0 0 -6.396,1.279 15.157,15.157 0 0 0 -4.934,3.473 15.509,15.509 0 0 0 -2.924,5.117 17.712,17.712 0 0 0 -1.097,6.215 18.813,18.813 0 0 0 1.097,6.396 15.524,15.524 0 0 0 2.924,5.118 18.464,18.464 0 0 0 4.934,3.473 19.187,19.187 0 0 0 6.579,1.279 21.906,21.906 0 0 0 5.117,-0.548 18.677,18.677 0 0 0 4.204,-1.462 v -11.332 h -8.955 v -4.752 h 14.62 v 19.556 a 31.767,31.767 0 0 1 -6.945,2.559 29.984,29.984 0 0 1 -8.224,0.914 23.228,23.228 0 0 1 -8.772,-1.462 21.933,21.933 0 0 1 -11.148,-28.33 21.028,21.028 0 0 1 4.569,-6.762 19.366,19.366 0 0 1 6.762,-4.204 21.396,21.396 0 0 1 8.407,-1.462 26.138,26.138 0 0 1 8.772,1.279 18.834,18.834 0 0 1 6.214,3.839 z m 22.661,26.867 h 21.017 v 5.118 h -26.682 v -40.392 h 25.768 v 4.935 h -20.103 v 12.062 h 19.007 v 4.935 h -19.007 z m 8.59,-38.381 h -4.204 l 5.666,-8.225 h 6.396 z m 28.692,38.381 h 21.017 v 5.118 h -26.682 v -40.392 h 25.951 v 4.935 h -20.286 v 12.062 h 19.007 v 4.935 H 785.113 Z M 0,68.428 h 29.058 l 119.887,180.576 h 0.548 V 68.428 h 21.565 V 286.107 H 149.493 L 22.113,94.564 H 21.565 V 286.107 H 0 V 68.427 Z m 587.556,0 h 21.565 V 286.107 H 587.556 V 68.427 Z m 251.287,0 h 117.511 v 19.556 h -95.946 v 78.408 h 92.839 v 19.557 h -92.839 v 80.418 h 95.946 v 19.74 H 838.843 V 68.427 Z M 359.295,257.594 a 91.192,91.192 0 0 1 -46.054,12.612 c -49.892,0 -92.108,-42.038 -92.108,-91.751 0,-54.282 43.678,-94.126 92.108,-94.126 48.43,0 92.291,42.22 92.291,93.212 a 90.841,90.841 0 0 1 -11.696,44.779 87.737,87.737 0 0 0 14.803,15.901 109.666,109.666 0 0 0 18.275,-61.045 c 0,-64.152 -53.364,-112.586 -113.673,-112.586 -57.202,0 -113.49,45.326 -113.49,113.865 0,61.045 52.45,111.49 113.49,111.49 A 113.31,113.31 0 0 0 373.55,272.399 136.368,136.368 0 0 1 359.295,257.594 Z M 411.746,97.123 a 85.522,85.522 0 0 1 44.409,-12.612 c 12.976,0 50.988,4.204 74.564,39.662 h 23.941 c -8.407,-20.288 -43.13,-59.4 -98.322,-59.4 a 113.3,113.3 0 0 0 -59.761,16.997 133.603,133.603 0 0 1 15.169,15.353 z"
       id="path2" />
    <path
       style="color:#000000;fill:#e10054;-inkscape-stroke:none"
       d="m 531.45,228.9 c -29.241,39.843 -64.33,41.306 -75.112,41.306 -45.506,0 -88.819,-39.844 -90.464,-89.375 v -3.838 a 92.486,92.486 0 0 1 11.879,-44.23 65.925,65.925 0 0 0 -9.137,-11.149 l -6.397,-5.849 a 113.517,113.517 0 0 0 -17.91,61.959 v 3.29 h 0.183 c 1.645,62.69 53.182,109.113 112.211,109.113 34.541,0 76.026,-18.277 98.87,-61.045 z M 932.779,23.65 a 13.344,13.344 0 0 0 5.848,-15.536 13.707,13.707 0 0 0 -14.986,-8.225 9.685,9.685 0 0 0 -3.107,0.731 9.322,9.322 0 0 0 -2.741,1.28 l -1.462,0.548 c -15.9,8.407 -33.627,19.739 -47.699,28.146 a 3.29,3.29 0 0 0 2.558,5.85 c 16.814,-2.925 38.562,-6.58 54.461,-10.236 l 2.011,-0.366 2.01,-0.548 a 16.64,16.64 0 0 0 3.107,-1.645 z M 654.444,68.61 h 71.639 c 67.071,0 69.63,48.983 69.63,57.938 0,25.588 -15.717,37.651 -23.21,43.682 a 56.657,56.657 0 0 1 35.454,53.552 c 0,21.019 -9.503,40.027 -24.489,50.262 -18.275,10.966 -32.347,12.428 -57.385,12.062 H 654.444 V 68.611 Z m 21.382,93.761 h 44.775 c 16.813,0 26.316,-0.913 36.551,-6.214 10.234,-5.3 17.361,-17.546 17.361,-30.522 a 35.822,35.822 0 0 0 -8.955,-23.943 c -8.406,-9.687 -21.382,-13.525 -43.13,-13.525 h -46.602 z m 0,104.179 h 47.881 c 17.91,0 28.876,-0.914 40.389,-5.666 11.514,-4.752 22.479,-20.653 22.479,-37.102 a 40.394,40.394 0 0 0 -25.037,-36.737 c -10.052,-4.021 -18.824,-4.935 -41.486,-4.935 h -44.226 z"
       id="path4" />
  </g>
  <defs
     id="defs11">
    <clipPath
       id="clip0">
      <path
         fill="#fff"
         d="M0 0h956v387H0z"
         id="path8" />
    </clipPath>
  </defs>
</svg>
